<?xml version="1.0" encoding="UTF-8" standalone="no"?>
<!-- Created with Inkscape (http://www.inkscape.org/) -->

<svg
   version="1.1"
   id="svg2"
   width="666.66669"
   height="666.66669"
   viewBox="0 0 666.66669 666.66669"
   sodipodi:docname="182551-OWVTIB-555.eps"
   xmlns:inkscape="http://www.inkscape.org/namespaces/inkscape"
   xmlns:sodipodi="http://sodipodi.sourceforge.net/DTD/sodipodi-0.dtd"
   xmlns="http://www.w3.org/2000/svg"
   xmlns:svg="http://www.w3.org/2000/svg">
  <defs
     id="defs6" />
  <sodipodi:namedview
     id="namedview4"
     pagecolor="#ffffff"
     bordercolor="#000000"
     borderopacity="0.25"
     inkscape:showpageshadow="2"
     inkscape:pageopacity="0.0"
     inkscape:pagecheckerboard="0"
     inkscape:deskcolor="#d1d1d1" />
  <g
     id="g8"
     inkscape:groupmode="layer"
     inkscape:label="ink_ext_XXXXXX"
     transform="matrix(1.3333333,0,0,-1.3333333,0,666.66667)">
    <g
       id="g10"
       transform="scale(0.1)">
      <path
         d="M 5000,0 H 0 V 5000 H 5000 V 0"
         style="fill:#ffffff;fill-opacity:1;fill-rule:nonzero;stroke:none"
         id="path12" />
      <path
         d="m 2615.55,3750.21 c 1.92,32 38.03,56.24 59.29,68.52 v 282.16 c 0,189.22 153.39,342.6 342.61,342.6 h 73.26 c 189.21,0 342.6,-153.38 342.6,-342.6 v -282.16 c 21.26,-12.28 57.38,-36.52 59.3,-68.52 l -59.3,29.3 v -865.05 c 0,-113.52 -92.02,-205.54 -205.54,-205.54 h -347.39 c -113.52,0 -205.54,92.02 -205.54,205.54 v 865.05 l -59.29,-29.3"
         style="fill:#68ccc4;fill-opacity:1;fill-rule:nonzero;stroke:none"
         id="path16" />
      <path
         d="m 2901.74,2757.76 h 304.68 c 113.51,0 174.78,112.57 174.78,226.08 l 30.75,1068.21 c 0,189.22 -153.39,342.61 -342.59,342.61 h -30.56 c -189.21,0 -342.6,-153.39 -342.6,-342.61 l 30.75,-1068.21 c 0,-113.51 61.27,-226.08 174.79,-226.08"
         style="fill:#90d9cf;fill-opacity:1;fill-rule:nonzero;stroke:none"
         id="path18" />
      <path
         d="m 3390.97,3404.08 c 4.53,1.66 9.06,3.32 13.59,4.99 v -1.17 c 0,-161.72 -23.36,-424.06 -23.36,-424.06 0,0 -66.48,-32.34 -66.48,149.14 0,77.63 -0.66,162.47 0,243.73 25.46,9.01 50.89,18.09 76.25,27.37"
         style="fill:#3f4045;fill-opacity:1;fill-rule:nonzero;stroke:none"
         id="path20" />
      <path
         d="m 3315.09,3411.28 c 1.28,95.62 4.82,183.93 14,246.39 17.97,122.18 75.47,303.66 75.47,303.66 0,0 0,-331.89 0,-510.79 -29.57,-13.65 -59.45,-26.6 -89.47,-39.26"
         style="fill:#3f4045;fill-opacity:1;fill-rule:nonzero;stroke:none"
         id="path22" />
      <path
         d="m 2717.2,3404.08 c -4.53,1.66 -9.08,3.32 -13.61,4.99 v -1.17 c 0,-161.72 23.36,-424.06 23.36,-424.06 0,0 66.49,-32.34 66.49,149.14 0,77.63 0.65,162.47 0,243.73 -25.46,9.01 -50.89,18.09 -76.24,27.37"
         style="fill:#3f4045;fill-opacity:1;fill-rule:nonzero;stroke:none"
         id="path24" />
      <path
         d="m 2793.07,3411.28 c -1.28,95.62 -4.82,183.93 -14.01,246.39 -17.97,122.18 -75.47,303.66 -75.47,303.66 0,0 0,-331.89 0,-510.79 29.58,-13.65 59.47,-26.6 89.48,-39.26"
         style="fill:#3f4045;fill-opacity:1;fill-rule:nonzero;stroke:none"
         id="path26" />
      <path
         d="m 2717.2,3404.08 c -4.53,1.66 -9.08,3.32 -13.61,4.99 v -1.17 c 0,-161.72 23.36,-424.06 23.36,-424.06 0,0 66.49,-32.34 66.49,149.14 0,77.63 0.65,162.47 0,243.73 -25.46,9.01 -50.89,18.09 -76.24,27.37"
         style="fill:#3f4045;fill-opacity:1;fill-rule:nonzero;stroke:none"
         id="path28" />
      <path
         d="m 2793.07,3411.28 c -1.28,95.62 -4.82,183.93 -14.01,246.39 -17.97,122.18 -75.47,303.66 -75.47,303.66 0,0 0,-331.89 0,-510.79 29.58,-13.65 59.47,-26.6 89.48,-39.26"
         style="fill:#3f4045;fill-opacity:1;fill-rule:nonzero;stroke:none"
         id="path30" />
      <path
         d="m 3054.08,4105.08 c -215.53,0 -305.42,-106.01 -305.42,-106.01 l 57.36,-319.84 h 248.06 248.06 l 57.35,319.84 c 0,0 -89.88,106.01 -305.41,106.01"
         style="fill:#3f4045;fill-opacity:1;fill-rule:nonzero;stroke:none"
         id="path32" />
      <path
         d="m 3359.49,4267.35 c -1.13,-4.94 -4.6,-9.46 -9.53,-10.16 -4.21,-0.6 -8.26,1.6 -11.89,3.82 -49.33,30.14 -87.08,78.6 -104.62,133.65 53.57,-29 97.56,-73.43 126.04,-127.31"
         style="fill:#eaebd4;fill-opacity:1;fill-rule:nonzero;stroke:none"
         id="path34" />
      <path
         d="m 2748.66,4267.35 c 1.13,-4.94 4.6,-9.46 9.53,-10.16 4.21,-0.6 8.26,1.6 11.9,3.82 49.32,30.14 87.08,78.6 104.62,133.65 -53.57,-29 -97.56,-73.43 -126.05,-127.31"
         style="fill:#eaebd4;fill-opacity:1;fill-rule:nonzero;stroke:none"
         id="path36" />
      <path
         d="m 2748.66,2832.91 45.07,-80.86 46.43,111.4 -33.62,18.49 c -7.03,3.87 -15.83,2.17 -20.92,-4.03 l -36.96,-45"
         style="fill:#fbca07;fill-opacity:1;fill-rule:nonzero;stroke:none"
         id="path38" />
      <path
         d="m 3359.49,2832.91 -45.07,-80.86 -46.42,111.4 33.62,18.49 c 7.03,3.87 15.82,2.17 20.91,-4.03 l 36.96,-45"
         style="fill:#fbca07;fill-opacity:1;fill-rule:nonzero;stroke:none"
         id="path40" />
      <path
         d="m 3268,2863.45 c -53.91,-23.36 -213.92,-21.56 -213.92,-21.56 0,0 -160.02,-1.8 -213.92,21.56 l -46.43,-111.4 c 45.22,-30.55 260.35,-23.36 260.35,-23.36 0,0 215.13,-7.19 260.34,23.36 l -46.42,111.4"
         style="fill:#3f4045;fill-opacity:1;fill-rule:nonzero;stroke:none"
         id="path42" />
      <path
         d="m 1600.87,3983.31 c -5.36,37.61 -8.05,75.56 -8.05,113.55 v 80.83 c 0,146.8 119,265.8 265.8,265.8 h 113.43 113.42 c 146.8,0 265.81,-119 265.81,-265.8 v -80.83 c 0,-37.99 -2.7,-75.94 -8.06,-113.55 l -15.89,-111.47 c -5.88,-41.3 -8.56,-82.99 -7.97,-124.7 l 6.41,-462.94 c 0.38,-27.2 4.66,-54.2 12.74,-80.18 8.46,-27.24 12.77,-55.6 12.77,-84.12 v -205.44 c 0,-113.52 -92.02,-205.54 -205.54,-205.54 h -173.69 -173.7 c -113.51,0 -205.53,92.02 -205.53,205.54 v 205.44 c 0,28.52 4.3,56.88 12.76,84.12 8.08,25.98 12.36,52.98 12.75,80.18 l 6.41,462.94 c 0.58,41.71 -2.09,83.4 -7.98,124.7 l -15.89,111.47"
         style="fill:#f25d19;fill-opacity:1;fill-rule:nonzero;stroke:none"
         id="path46" />
      <path
         d="m 2322.32,3960.39 c 5.06,35.49 7.6,71.3 7.6,107.15 v 76.28 c 0,138.54 -112.3,250.84 -250.83,250.84 H 1972.05 1865 c -138.53,0 -250.83,-112.3 -250.83,-250.84 v -76.28 c 0,-35.85 2.54,-71.66 7.6,-107.15 l 15,-105.2 c 5.55,-38.97 8.07,-78.31 7.53,-117.67 l -6.06,-436.87 c -0.35,-25.67 -4.4,-51.16 -12.02,-75.67 -7.99,-25.71 -12.05,-52.47 -12.05,-79.38 v -193.88 c 0,-107.12 86.84,-193.96 193.96,-193.96 h 163.92 163.91 c 107.12,0 193.96,86.84 193.96,193.96 v 193.88 c 0,26.91 -4.06,53.67 -12.04,79.38 -7.62,24.51 -11.67,50 -12.03,75.67 l -6.05,436.87 c -0.55,39.36 1.97,78.7 7.52,117.67 l 15,105.2"
         style="fill:#f57c14;fill-opacity:1;fill-rule:nonzero;stroke:none"
         id="path48" />
      <path
         d="m 1644.78,4291.36 c -21.58,31.63 71.87,93.44 99.42,71.87 27.55,-21.56 -81.46,-98.23 -99.42,-71.87"
         style="fill:#eaebd4;fill-opacity:1;fill-rule:nonzero;stroke:none"
         id="path50" />
      <path
         d="m 1613.24,3927.19 c 0,0 -43.4,-29.94 -50.59,-44.32 -7.19,-14.37 0,-27.55 4.79,-26.35 4.8,1.19 61.1,25.15 61.1,25.15 l -15.3,45.52"
         style="fill:#f2531b;fill-opacity:1;fill-rule:nonzero;stroke:none"
         id="path52" />
      <path
         d="m 1681.22,3495.46 c 0.41,77.09 -0.66,143.49 -2.9,190.96 -7.19,152.13 -34.75,273.12 -34.75,273.12 -9.07,-180.5 -13.26,-327.04 -14.39,-445.57 17.13,-7.79 34.53,-11.45 52.04,-18.51"
         style="fill:#3f4045;fill-opacity:1;fill-rule:nonzero;stroke:none"
         id="path54" />
      <path
         d="m 1629.07,3499.86 c -2.78,-365.81 24.09,-456.72 24.09,-456.72 18.74,73.32 26.94,270.49 28.02,439.29 -17.16,5.37 -34.53,13.62 -52.11,17.43"
         style="fill:#3f4045;fill-opacity:1;fill-rule:nonzero;stroke:none"
         id="path56" />
      <path
         d="m 2262.88,3495.46 c -0.42,77.09 0.66,143.49 2.9,190.96 7.18,152.13 34.74,273.12 34.74,273.12 9.07,-180.5 13.26,-327.04 14.39,-445.57 -17.13,-7.79 -34.53,-11.45 -52.03,-18.51"
         style="fill:#3f4045;fill-opacity:1;fill-rule:nonzero;stroke:none"
         id="path58" />
      <path
         d="m 2315.02,3499.86 c 2.78,-365.81 -24.09,-456.72 -24.09,-456.72 -18.73,73.32 -26.94,270.49 -28.02,439.29 17.16,5.37 34.53,13.62 52.11,17.43"
         style="fill:#3f4045;fill-opacity:1;fill-rule:nonzero;stroke:none"
         id="path60" />
      <path
         d="m 1745.07,2758.25 c -4.82,-10.16 -28.93,-8.81 -53.85,3.01 -24.93,11.83 -41.22,29.65 -36.4,39.81 4.82,10.16 28.93,8.81 53.86,-3.01 24.92,-11.82 41.21,-29.65 36.39,-39.81"
         style="fill:#fbca07;fill-opacity:1;fill-rule:nonzero;stroke:none"
         id="path62" />
      <path
         d="m 2299.32,4291.36 c 21.57,31.63 -71.87,93.44 -99.43,71.87 -27.55,-21.56 81.46,-98.23 99.43,-71.87"
         style="fill:#eaebd4;fill-opacity:1;fill-rule:nonzero;stroke:none"
         id="path64" />
      <path
         d="m 2330.85,3927.19 c 0,0 43.4,-29.94 50.59,-44.32 7.19,-14.37 0,-27.55 -4.79,-26.35 -4.79,1.19 -61.09,25.15 -61.09,25.15 l 15.29,45.52"
         style="fill:#f2531b;fill-opacity:1;fill-rule:nonzero;stroke:none"
         id="path66" />
      <path
         d="m 2199.02,2758.25 c 4.82,-10.16 28.93,-8.81 53.86,3.01 24.92,11.83 41.22,29.65 36.39,39.81 -4.82,10.16 -28.93,8.81 -53.85,-3.01 -24.93,-11.82 -41.22,-29.65 -36.4,-39.81"
         style="fill:#fbca07;fill-opacity:1;fill-rule:nonzero;stroke:none"
         id="path68" />
      <path
         d="m 1972.05,4153.6 v 0 0 0 0 c -244.98,0 -306.91,-134.17 -306.91,-134.17 l 32.78,-263.54 c 0,0 139.89,29.95 274.13,29.95 134.23,0 274.12,-29.95 274.12,-29.95 l 32.78,263.54 c 0,0 -61.92,134.17 -306.9,134.17 z m 0,-1032.6 c 176.33,0 255.4,34.74 255.4,34.74 v -264.73 c 0,0 -65.18,-73.08 -255.4,-73.08 v 0 0 0 0 c -190.23,0 -255.4,73.08 -255.4,73.08 v 264.73 c 0,0 79.06,-34.74 255.4,-34.74"
         style="fill:#3f4045;fill-opacity:1;fill-rule:nonzero;stroke:none"
         id="path70" />
      <path
         d="m 505.648,3875.5 c 0.293,13.26 -0.175,26.54 -1.402,39.75 l -14.461,156.22 c -9.402,101.57 25.156,231.89 97.289,304.02 61.996,62 158.43,71.6 253.039,71.6 h 40.918 c 94.61,0 191.039,-9.6 253.039,-71.6 72.13,-72.13 106.69,-202.45 97.29,-304.02 l -14.47,-156.22 c -1.22,-13.21 -1.69,-26.49 -1.4,-39.75 l 18.92,-742.52 c 0,-113.51 -92.02,-427.65 -205.53,-427.65 H 692.262 c -113.512,0 -205.532,314.14 -205.532,427.65 l 18.918,742.52"
         style="fill:#e33024;fill-opacity:1;fill-rule:nonzero;stroke:none"
         id="path74" />
      <path
         d="m 1161.15,3816.39 c -0.28,12.64 37.91,70.4 39.07,83 l 13.79,148.91 c 8.97,96.82 -23.98,221.05 -92.74,289.8 -59.09,59.1 -151.016,68.25 -241.196,68.25 H 841.07 c -90.187,0 -182.105,-9.15 -241.203,-68.25 -68.754,-68.75 -101.703,-192.98 -92.738,-289.8 l 13.789,-148.91 c 1.168,-12.6 39.352,-70.36 39.07,-83 V 3125.8 c 0,-108.21 31.946,-379.74 140.149,-379.74 h 320.873 c 108.2,0 140.14,271.53 140.14,379.74 v 690.59"
         style="fill:#f14842;fill-opacity:1;fill-rule:nonzero;stroke:none"
         id="path76" />
      <path
         d="m 530.043,3843.34 v -34.74 l -77.863,-19.17 c 0,0 -13.176,53.91 77.863,53.91"
         style="fill:#e33024;fill-opacity:1;fill-rule:nonzero;stroke:none"
         id="path78" />
      <path
         d="m 549.219,3477.63 c -0.004,-2.18 -0.008,-4.36 -0.008,-6.54 0,-172.8 10.777,-345.29 10.777,-345.29 0,0 43.125,125.77 43.125,172.49 v 169.2 c -17.816,4.23 -35.824,7.69 -53.894,10.14"
         style="fill:#3f4045;fill-opacity:1;fill-rule:nonzero;stroke:none"
         id="path80" />
      <path
         d="m 603.113,3487.46 v 157.63 c 0,26.95 -43.125,171.3 -43.125,171.3 0,0 -9.468,-151.63 -10.652,-312.97 18.176,-4.45 36.039,-9.97 53.777,-15.96"
         style="fill:#3f4045;fill-opacity:1;fill-rule:nonzero;stroke:none"
         id="path82" />
      <path
         d="m 1171.92,3477.63 c 0.01,-2.18 0.01,-4.36 0.01,-6.54 0,-172.8 -10.78,-345.29 -10.78,-345.29 0,0 -43.12,125.77 -43.12,172.49 v 169.2 c 17.81,4.23 35.82,7.69 53.89,10.14"
         style="fill:#3f4045;fill-opacity:1;fill-rule:nonzero;stroke:none"
         id="path84" />
      <path
         d="m 1118.03,3487.46 v 157.63 c 0,26.95 43.12,171.3 43.12,171.3 0,0 9.48,-151.63 10.66,-312.97 -18.18,-4.45 -36.05,-9.97 -53.78,-15.96"
         style="fill:#3f4045;fill-opacity:1;fill-rule:nonzero;stroke:none"
         id="path86" />
      <path
         d="m 1191.1,3843.34 v -34.74 l 77.86,-19.17 c 0,0 13.18,53.91 -77.86,53.91"
         style="fill:#e33024;fill-opacity:1;fill-rule:nonzero;stroke:none"
         id="path88" />
      <path
         d="m 1078,3138.85 c -39.2,-9.05 -139.238,-27.43 -217.43,-27.43 -78.191,0 -178.23,18.38 -217.429,27.43 -10.512,2.42 -20.618,-5.33 -20.989,-16.11 l -7.91,-227.81 c -0.219,-6.26 2.985,-12.17 8.379,-15.36 91.426,-54.16 237.949,-46.66 237.949,-46.66 0,0 146.52,-7.5 237.95,46.66 5.4,3.19 8.6,9.1 8.38,15.36 l -7.91,227.81 c -0.38,10.78 -10.47,18.53 -20.99,16.11 z m -455.117,552.96 -64.692,249.76 c 0,0 68.286,95.23 302.379,95.23 234.1,0 302.38,-95.23 302.38,-95.23 l -64.69,-249.76 c 0,0 -130.377,30.54 -237.69,30.54 -107.308,0 -237.687,-30.54 -237.687,-30.54"
         style="fill:#3f4045;fill-opacity:1;fill-rule:nonzero;stroke:none"
         id="path90" />
      <path
         d="m 558.191,4316.06 c 53.555,13.37 88.2,74.39 86.039,90.29 -15.468,-8.48 -29.757,-18.88 -42.5,-31.62 -16.667,-16.67 -31.199,-36.63 -43.539,-58.67"
         style="fill:#eaebd4;fill-opacity:1;fill-rule:nonzero;stroke:none"
         id="path92" />
      <path
         d="m 1162.95,4316.06 c -53.56,13.37 -88.2,74.39 -86.04,90.29 15.47,-8.48 29.76,-18.88 42.5,-31.62 16.67,-16.67 31.2,-36.63 43.54,-58.67"
         style="fill:#eaebd4;fill-opacity:1;fill-rule:nonzero;stroke:none"
         id="path94" />
      <path
         d="m 2207.86,704.109 h -471.63 c -71.55,0 -129.55,58.012 -129.55,129.551 v 1207.03 c 0,154.97 125.63,280.6 280.61,280.6 h 169.52 c 154.97,0 280.6,-125.63 280.6,-280.6 V 833.66 c 0,-71.539 -58,-129.551 -129.55,-129.551"
         style="fill:#4e81ca;fill-opacity:1;fill-rule:nonzero;stroke:none"
         id="path98" />
      <path
         d="m 2061.35,776.879 h -178.61 c -143.83,0 -215.9,24.172 -215.9,168.012 l 52.45,659.459 -96.99,409.25 c 0,150.84 122.28,273.13 273.12,273.13 h 153.25 c 150.84,0 273.12,-122.29 273.12,-273.13 l -96.99,-409.25 52.46,-659.459 c 0,-143.84 -72.07,-168.012 -215.91,-168.012"
         style="fill:#679eda;fill-opacity:1;fill-rule:nonzero;stroke:none"
         id="path100" />
      <path
         d="m 1620.46,1812.78 c 20.2,3.43 13.78,-35.93 0,-44.92 -13.78,-8.98 -95.24,-26.95 -95.24,-26.95 0,0 0,55.7 95.24,71.87"
         style="fill:#4e81ca;fill-opacity:1;fill-rule:nonzero;stroke:none"
         id="path102" />
      <path
         d="m 1633.31,1900.83 c 0,0 55.43,-271.33 60.82,-323.44 5.39,-52.11 10.78,-591.171 0,-614.531 -10.78,-23.359 -27.29,-17.968 -27.29,-17.968 0,0 -33.53,62.889 -33.53,380.939 0,318.05 0,575 0,575"
         style="fill:#3f4045;fill-opacity:1;fill-rule:nonzero;stroke:none"
         id="path104" />
      <path
         d="m 1651.01,849.66 c 3.59,-14.379 64.68,-79.058 68.28,-91.64 3.59,-12.579 -32.31,-27.84 -68.28,10.781 -35.98,38.621 0,80.859 0,80.859"
         style="fill:#f14360;fill-opacity:1;fill-rule:nonzero;stroke:none"
         id="path106" />
      <path
         d="m 1730.07,776.879 c 0,0 44.02,-11.668 61.99,-44.918 0,0 -56.6,2.699 -61.99,44.918"
         style="fill:#fbca07;fill-opacity:1;fill-rule:nonzero;stroke:none"
         id="path108" />
      <path
         d="m 1647.41,2107.46 c 0,0 -9.88,123.99 113.65,154.53 0,0 -32.79,-115 -113.65,-154.53"
         style="fill:#eaebd4;fill-opacity:1;fill-rule:nonzero;stroke:none"
         id="path110" />
      <path
         d="m 2323.63,1812.78 c -20.2,3.43 -13.77,-35.93 0,-44.92 13.78,-8.98 95.24,-26.95 95.24,-26.95 0,0 0,55.7 -95.24,71.87"
         style="fill:#4e81ca;fill-opacity:1;fill-rule:nonzero;stroke:none"
         id="path112" />
      <path
         d="m 2310.78,1900.83 c 0,0 -55.43,-271.33 -60.82,-323.44 -5.39,-52.11 -10.78,-591.171 0,-614.531 10.78,-23.359 27.3,-17.968 27.3,-17.968 0,0 33.52,62.889 33.52,380.939 0,318.05 0,575 0,575"
         style="fill:#3f4045;fill-opacity:1;fill-rule:nonzero;stroke:none"
         id="path114" />
      <path
         d="m 1972.05,802.941 c -187.47,0 -241.98,46.719 -241.98,46.719 l -37.74,-28.75 c 111.41,-80.859 279.72,-71.879 279.72,-71.879 0,0 168.3,-8.98 279.71,71.879 l -37.74,28.75 c 0,0 -54.5,-46.719 -241.97,-46.719 z m -252.76,801.409 c 0,0 -63.58,273.12 -52.45,323.43 11.12,50.31 150.91,88.04 305.21,88.04 154.29,0 294.08,-37.73 305.21,-88.04 11.12,-50.31 -52.46,-323.43 -52.46,-323.43 0,0 -85.29,16.17 -252.75,16.17 -167.47,0 -252.76,-16.17 -252.76,-16.17"
         style="fill:#3f4045;fill-opacity:1;fill-rule:nonzero;stroke:none"
         id="path116" />
      <path
         d="m 2293.09,849.66 c -3.6,-14.379 -64.69,-79.058 -68.29,-91.64 -3.59,-12.579 32.31,-27.84 68.29,10.781 35.97,38.621 0,80.859 0,80.859"
         style="fill:#f14360;fill-opacity:1;fill-rule:nonzero;stroke:none"
         id="path118" />
      <path
         d="m 2214.02,776.879 c 0,0 -44.02,-11.668 -61.99,-44.918 0,0 56.6,2.699 61.99,44.918"
         style="fill:#fbca07;fill-opacity:1;fill-rule:nonzero;stroke:none"
         id="path120" />
      <path
         d="m 2296.68,2107.46 c 0,0 9.88,123.99 -113.65,154.53 0,0 32.79,-115 113.65,-154.53"
         style="fill:#eaebd4;fill-opacity:1;fill-rule:nonzero;stroke:none"
         id="path122" />
      <path
         d="m 2810.44,628.641 h 487.28 c 67.22,0 121.72,54.5 121.72,121.718 V 2123.98 c 0,150.66 -122.13,272.78 -272.77,272.78 h -185.19 c -150.64,0 -272.76,-122.12 -272.76,-272.78 V 750.359 c 0,-67.218 54.49,-121.718 121.72,-121.718"
         style="fill:#686168;fill-opacity:1;fill-rule:nonzero;stroke:none"
         id="path126" />
      <path
         d="m 2860.7,673.781 h 386.75 c 84.69,0 153.34,68.649 153.34,153.328 l -117.17,322.631 3.26,597.36 113.91,331.41 c 0,150.84 -122.28,273.11 -273.12,273.11 h -147.18 c -150.84,0 -273.12,-122.27 -273.12,-273.11 l 113.91,-331.41 3.25,-597.36 -117.16,-322.631 c 0,-84.679 68.65,-153.328 153.33,-153.328"
         style="fill:#7a747b;fill-opacity:1;fill-rule:nonzero;stroke:none"
         id="path128" />
      <path
         d="m 2872.15,2352.62 c 2.69,6.51 3.41,13.59 2.52,20.54 -48.4,-19.44 -89.37,-53.42 -117.52,-96.57 17.69,14.87 37.5,27.21 58.71,36.39 21.66,9.37 47.25,17.84 56.29,39.64"
         style="fill:#eaebd4;fill-opacity:1;fill-rule:nonzero;stroke:none"
         id="path130" />
      <path
         d="m 3236.01,2352.62 c -2.7,6.51 -3.41,13.59 -2.52,20.54 48.4,-19.44 89.37,-53.42 117.53,-96.57 -17.71,14.87 -37.51,27.21 -58.73,36.39 -21.66,9.37 -47.24,17.84 -56.28,39.64"
         style="fill:#eaebd4;fill-opacity:1;fill-rule:nonzero;stroke:none"
         id="path132" />
      <path
         d="m 2793.76,1453.66 c -1.12,90.82 -3.37,174.02 -3.37,204.59 0,91.64 -68.28,177.89 -68.28,177.89 v -355.37 c 23.44,-10.1 47.58,-18.52 71.65,-27.11"
         style="fill:#3f4045;fill-opacity:1;fill-rule:nonzero;stroke:none"
         id="path134" />
      <path
         d="m 2791.85,1227.8 c 2.85,57.65 2.9,137.07 2.07,212.78 -24.18,6.68 -48.19,13.95 -71.81,22.46 V 1193.5 c 23.69,10.54 46.99,21.89 69.74,34.3"
         style="fill:#3f4045;fill-opacity:1;fill-rule:nonzero;stroke:none"
         id="path136" />
      <path
         d="m 2722.11,1173.75 v -94.09 c 0,0 59.3,1.8 68.28,123.98 0.24,3.33 0.47,6.81 0.68,10.37 -22.61,-14.13 -45.03,-28.62 -68.96,-40.26"
         style="fill:#3f4045;fill-opacity:1;fill-rule:nonzero;stroke:none"
         id="path138" />
      <path
         d="m 2707.73,1882.86 -79.96,-21.84 c -14.56,-3.99 -23.4,-18.74 -20.04,-33.46 l 2.97,-12.98 97.03,21.56 v 46.72"
         style="fill:#686168;fill-opacity:1;fill-rule:nonzero;stroke:none"
         id="path140" />
      <path
         d="m 3146.32,2389.57 h -184.48 c -22.29,0 -43.94,-2.73 -64.68,-7.77 23.47,-15.98 51.25,-24.57 79.74,-24.57 h 154.36 c 28.5,0 56.27,8.59 79.74,24.57 -20.75,5.04 -42.39,7.77 -64.68,7.77"
         style="fill:#3f4045;fill-opacity:1;fill-rule:nonzero;stroke:none"
         id="path142" />
      <path
         d="m 3314.39,1453.66 c 1.13,90.82 3.37,174.02 3.37,204.59 0,91.64 68.28,177.89 68.28,177.89 v -355.37 c -23.43,-10.1 -47.56,-18.52 -71.65,-27.11"
         style="fill:#3f4045;fill-opacity:1;fill-rule:nonzero;stroke:none"
         id="path144" />
      <path
         d="m 3316.31,1227.8 c -2.85,57.65 -2.9,137.07 -2.07,212.78 24.19,6.68 48.18,13.95 71.8,22.46 V 1193.5 c -23.68,10.54 -46.99,21.89 -69.73,34.3"
         style="fill:#3f4045;fill-opacity:1;fill-rule:nonzero;stroke:none"
         id="path146" />
      <path
         d="m 3386.04,1173.75 v -94.09 c 0,0 -59.29,1.8 -68.28,123.98 -0.24,3.33 -0.47,6.81 -0.68,10.37 22.63,-14.13 45.04,-28.62 68.96,-40.26"
         style="fill:#3f4045;fill-opacity:1;fill-rule:nonzero;stroke:none"
         id="path148" />
      <path
         d="m 3283.62,1149.74 c 0,0 -96.12,-48.52 -229.54,-48.52 -133.42,0 -229.55,48.52 -229.55,48.52 -18.77,-53.82 -26.01,-125.94 -28.69,-164.76 -1.18,-17.23 8.1,-33.48 23.56,-41.128 40.28,-19.922 126.07,-54.661 234.68,-54.661 108.62,0 194.4,34.739 234.67,54.661 15.48,7.648 24.75,23.898 23.56,41.128 -2.66,38.82 -9.91,110.94 -28.69,164.76 z m 65.62,746.1 c -4.09,-29.45 -17.63,-88.46 -62.36,-148.74 -6.21,-8.37 -16.41,-12.79 -26.79,-11.9 -34.51,2.95 -118.8,9.3 -206.01,9.3 -87.2,0 -171.5,-6.35 -206.01,-9.3 -10.38,-0.89 -20.58,3.53 -26.79,11.9 -44.74,60.28 -58.27,119.29 -62.36,148.74 -1.74,12.51 4.26,24.86 15.35,30.92 30.72,16.79 108.7,45.94 279.81,45.94 171.12,0 249.09,-29.15 279.81,-45.94 11.09,-6.06 17.09,-18.41 15.35,-30.92"
         style="fill:#3f4045;fill-opacity:1;fill-rule:nonzero;stroke:none"
         id="path150" />
      <path
         d="m 3400.42,1882.86 79.96,-21.84 c 14.56,-3.99 23.4,-18.74 20.04,-33.46 l -2.97,-12.98 -97.03,21.56 v 46.72"
         style="fill:#686168;fill-opacity:1;fill-rule:nonzero;stroke:none"
         id="path152" />
      <path
         d="m 2806.25,650.211 c -22.76,6.918 -43.86,19.219 -61.06,35.641 -4.49,4.277 -8.84,8.918 -14.43,11.578 -3.86,1.851 -8.51,2.48 -12.54,1.34 24.12,-32.981 61.09,-55.938 103.54,-61.559 0.01,0.148 0.06,0.289 0.05,0.441 -0.24,7.137 -8.71,10.489 -15.56,12.559"
         style="fill:#fbca07;fill-opacity:1;fill-rule:nonzero;stroke:none"
         id="path154" />
      <path
         d="m 3301.91,650.211 c 22.76,6.918 43.85,19.219 61.07,35.641 4.48,4.277 8.83,8.918 14.41,11.578 3.86,1.851 8.52,2.48 12.54,1.34 -24.11,-32.981 -61.08,-55.938 -103.53,-61.559 0,0.148 -0.05,0.289 -0.05,0.441 0.23,7.137 8.71,10.489 15.56,12.559"
         style="fill:#fbca07;fill-opacity:1;fill-rule:nonzero;stroke:none"
         id="path156" />
      <path
         d="m 1225.37,2243.15 c -6.71,56.51 -46.14,103.85 -100.61,120.31 -61.74,18.66 -152.787,38.09 -264.19,38.09 -111.398,0 -202.449,-19.43 -264.183,-38.09 -54.473,-16.46 -93.907,-63.8 -100.61,-120.31 -13.488,-113.65 -33.918,-332.16 -33.918,-613.05 0,-318.54 34.571,-711.748 51.184,-882.311 5.102,-52.348 44.66,-94.867 96.566,-103.43 60.672,-10 148.688,-20.5 250.961,-20.5 102.278,0 190.29,10.5 250.96,20.5 51.91,8.563 91.47,51.082 96.57,103.43 16.61,170.563 51.18,563.771 51.18,882.311 0,280.89 -20.43,499.4 -33.91,613.05"
         style="fill:#f8990f;fill-opacity:1;fill-rule:nonzero;stroke:none"
         id="path160" />
      <path
         d="m 1213.54,2219.46 c -6.49,54.68 -44.64,100.48 -97.35,116.41 -59.73,18.05 -147.831,36.85 -255.62,36.85 -107.789,0 -195.882,-18.8 -255.621,-36.85 -52.703,-15.93 -90.851,-61.73 -97.344,-116.41 -13.05,-109.96 54.875,-269.67 54.875,-541.44 0,-308.21 12.68,-560.26 28.75,-725.282 4.938,-50.656 -23.703,-271.937 26.52,-280.218 58.703,-9.68 143.859,-19.829 242.82,-19.829 98.957,0 184.12,10.149 242.82,19.829 50.22,8.281 21.59,229.562 26.52,280.218 16.07,165.022 28.75,417.072 28.75,725.282 0,271.77 67.92,431.48 54.88,541.44"
         style="fill:#f9e12f;fill-opacity:1;fill-rule:nonzero;stroke:none"
         id="path162" />
      <path
         d="m 478.629,1831.35 c 0,0 -55.934,-1.55 -80.836,-34.53 -6.559,-8.7 0.406,-21.01 11.215,-19.73 l 69.621,8.24 v 46.02"
         style="fill:#f8990f;fill-opacity:1;fill-rule:nonzero;stroke:none"
         id="path164" />
      <path
         d="m 707.168,2378.26 c -43.242,-7.14 -80.547,-16.44 -110.785,-25.58 -22.328,-6.75 -42.07,-18.75 -58.129,-34.39 1.078,-3.95 3.84,-7.69 7.699,-9.13 8.36,-3.11 17.531,0.77 25.602,4.57 42.668,20.15 85.34,40.28 128.011,60.42 2.539,1.2 5.176,2.55 7.602,4.11"
         style="fill:#eaebd4;fill-opacity:1;fill-rule:nonzero;stroke:none"
         id="path166" />
      <path
         d="m 1242.51,1831.35 c 0,0 55.93,-1.55 80.84,-34.53 6.56,-8.7 -0.41,-21.01 -11.22,-19.73 l -69.62,8.24 v 46.02"
         style="fill:#f8990f;fill-opacity:1;fill-rule:nonzero;stroke:none"
         id="path168" />
      <path
         d="m 1013.97,2378.26 c 43.25,-7.14 80.55,-16.44 110.79,-25.58 22.33,-6.75 42.07,-18.75 58.13,-34.39 -1.08,-3.95 -3.84,-7.69 -7.7,-9.13 -8.36,-3.11 -17.53,0.77 -25.6,4.57 -42.67,20.15 -85.34,40.28 -128.01,60.42 -2.54,1.2 -5.18,2.55 -7.61,4.11"
         style="fill:#eaebd4;fill-opacity:1;fill-rule:nonzero;stroke:none"
         id="path170" />
      <path
         d="M 591.23,952.738 V 695.371 c 0,-20.91 15.231,-38.609 35.875,-41.91 82.364,-13.16 233.465,-15.231 233.465,-15.231 0,0 151.1,2.071 233.46,15.231 20.65,3.301 35.88,21 35.88,41.91 V 952.738 H 591.23"
         style="fill:#3f4045;fill-opacity:1;fill-rule:nonzero;stroke:none"
         id="path172" />
      <path
         d="m 860.57,2193.12 c -214.23,0 -336.422,-131.77 -336.422,-131.77 l 38.332,-383.33 c 0,0 128.997,71.27 298.09,71.27 169.1,0 298.09,-71.27 298.09,-71.27 l 38.33,383.33 c 0,0 -122.19,131.77 -336.42,131.77"
         style="fill:#3f4045;fill-opacity:1;fill-rule:nonzero;stroke:none"
         id="path174" />
      <path
         d="m 541.43,1016.54 c -0.727,92.65 -1.621,198.06 -2.625,296.2 -19.535,9.84 -39.512,18.87 -59.418,27.98 2.668,-118.24 12.285,-230.23 23.269,-324.18 h 38.774"
         style="fill:#3f4045;fill-opacity:1;fill-rule:nonzero;stroke:none"
         id="path176" />
      <path
         d="m 505.973,988.988 c 17.648,-142.117 37.343,-236.429 37.343,-236.429 0,0 -0.64,102.371 -1.683,238.16 -11.875,-0.77 -23.766,-1.34 -35.66,-1.731"
         style="fill:#3f4045;fill-opacity:1;fill-rule:nonzero;stroke:none"
         id="path178" />
      <path
         d="m 538.398,1351.6 c -1.429,133.52 -3.046,247.66 -4.664,288.08 -4.793,119.79 -38.336,330.62 -38.336,330.62 0,0 -16.769,-222.63 -16.769,-565.41 0,-0.48 0.004,-0.95 0.004,-1.43 19.148,-18.15 39.144,-35.37 59.765,-51.86"
         style="fill:#3f4045;fill-opacity:1;fill-rule:nonzero;stroke:none"
         id="path180" />
      <path
         d="m 1179.71,1016.54 c 0.72,92.65 1.62,198.06 2.62,296.2 19.54,9.84 39.52,18.87 59.43,27.98 -2.67,-118.24 -12.29,-230.23 -23.27,-324.18 h -38.78"
         style="fill:#3f4045;fill-opacity:1;fill-rule:nonzero;stroke:none"
         id="path182" />
      <path
         d="m 1215.17,988.988 c -17.65,-142.117 -37.34,-236.429 -37.34,-236.429 0,0 0.64,102.371 1.68,238.16 11.88,-0.77 23.77,-1.34 35.66,-1.731"
         style="fill:#3f4045;fill-opacity:1;fill-rule:nonzero;stroke:none"
         id="path184" />
      <path
         d="m 1182.74,1351.6 c 1.43,133.52 3.05,247.66 4.67,288.08 4.79,119.79 38.33,330.62 38.33,330.62 0,0 16.77,-222.63 16.77,-565.41 0,-0.48 0,-0.95 0,-1.43 -19.15,-18.15 -39.15,-35.37 -59.77,-51.86"
         style="fill:#3f4045;fill-opacity:1;fill-rule:nonzero;stroke:none"
         id="path186" />
      <path
         d="m 4407.27,632.242 h -501.43 c -63.32,0 -114.65,51.328 -114.65,114.637 V 2115.46 c 0,133.52 108.24,241.77 241.77,241.77 h 247.19 c 133.52,0 241.76,-108.25 241.76,-241.77 V 746.879 c 0,-63.309 -51.32,-114.637 -114.64,-114.637"
         style="fill:#211c22;fill-opacity:1;fill-rule:nonzero;stroke:none"
         id="path190" />
      <path
         d="m 3804.96,1848.72 c 20.21,3.43 13.78,-35.94 0,-44.92 -13.77,-8.99 -95.23,-26.95 -95.23,-26.95 0,0 0,55.7 95.23,71.87"
         style="fill:#211c22;fill-opacity:1;fill-rule:nonzero;stroke:none"
         id="path192" />
      <path
         d="m 4508.13,1848.72 c -20.19,3.43 -13.76,-35.94 0,-44.92 13.78,-8.99 95.24,-26.95 95.24,-26.95 0,0 0,55.7 -95.24,71.87"
         style="fill:#211c22;fill-opacity:1;fill-rule:nonzero;stroke:none"
         id="path194" />
      <path
         d="m 4067.26,705.012 h 178.59 c 143.84,0 215.92,24.168 215.92,168.008 l -52.46,767.26 96.99,462.92 c 0,150.84 -122.29,233.84 -273.13,233.84 h -153.24 c -150.84,0 -273.12,-83 -273.12,-233.84 l 96.98,-462.92 -52.45,-767.26 c 0,-143.84 72.07,-168.008 215.92,-168.008"
         style="fill:#272229;fill-opacity:1;fill-rule:nonzero;stroke:none"
         id="path196" />
      <path
         d="m 3817.81,1936.77 c 0,0 55.43,-271.33 60.82,-323.44 5.39,-52.11 10.78,-698.978 0,-722.338 -10.78,-23.363 -27.29,-17.972 -27.29,-17.972 0,0 -33.53,134.76 -33.53,452.81 0,318.05 0,610.94 0,610.94"
         style="fill:#3f4045;fill-opacity:1;fill-rule:nonzero;stroke:none"
         id="path198" />
      <path
         d="m 3835.51,777.781 c 3.59,-14.371 64.69,-79.062 68.28,-91.64 3.59,-12.582 -32.31,-27.832 -68.28,10.781 -35.98,38.629 0,80.859 0,80.859"
         style="fill:#f14360;fill-opacity:1;fill-rule:nonzero;stroke:none"
         id="path200" />
      <path
         d="m 4495.28,1936.77 c 0,0 -55.43,-271.33 -60.82,-323.44 -5.39,-52.11 -10.78,-698.978 0,-722.338 10.78,-23.363 27.31,-17.972 27.31,-17.972 0,0 33.51,134.76 33.51,452.81 0,318.05 0,610.94 0,610.94"
         style="fill:#3f4045;fill-opacity:1;fill-rule:nonzero;stroke:none"
         id="path202" />
      <path
         d="m 4156.55,731.059 c -187.47,0 -241.98,46.722 -241.98,46.722 l -37.73,-28.75 c 111.4,-80.859 279.71,-71.871 279.71,-71.871 0,0 168.3,-8.988 279.71,71.871 l -37.73,28.75 c 0,0 -54.51,-46.722 -241.98,-46.722 z m -252.76,909.221 c 0,0 -63.58,273.13 -52.45,323.43 11.12,50.31 150.92,88.05 305.21,88.05 154.29,0 294.08,-37.74 305.22,-88.05 11.12,-50.3 -52.46,-323.43 -52.46,-323.43 0,0 -85.3,16.18 -252.76,16.18 -167.47,0 -252.76,-16.18 -252.76,-16.18"
         style="fill:#3f4045;fill-opacity:1;fill-rule:nonzero;stroke:none"
         id="path204" />
      <path
         d="m 4477.59,777.781 c -3.6,-14.371 -64.69,-79.062 -68.28,-91.64 -3.6,-12.582 32.3,-27.832 68.28,10.781 35.97,38.629 0,80.859 0,80.859"
         style="fill:#f14360;fill-opacity:1;fill-rule:nonzero;stroke:none"
         id="path206" />
      <path
         d="m 3979.59,2305.36 c -0.85,12.83 -8.96,24.43 -19.49,31.82 -0.08,0.05 -0.15,0.09 -0.23,0.13 -44.87,-17.5 -82.79,-48.84 -108.53,-88.8 31.21,-9.51 66.28,-6.35 94.96,9.31 17.95,9.81 34.63,27.13 33.29,47.54"
         style="fill:#eaebd4;fill-opacity:1;fill-rule:nonzero;stroke:none"
         id="path208" />
      <path
         d="m 4333.52,2305.36 c 0.84,12.83 8.95,24.43 19.49,31.82 0.07,0.05 0.14,0.09 0.21,0.13 44.89,-17.5 82.81,-48.84 108.55,-88.8 -31.22,-9.51 -66.28,-6.35 -94.96,9.31 -17.95,9.81 -34.63,27.13 -33.29,47.54"
         style="fill:#eaebd4;fill-opacity:1;fill-rule:nonzero;stroke:none"
         id="path210" />
      <path
         d="m 4371.93,1328.27 h -430.77 c -14.17,0 -25.66,11.49 -25.66,25.67 v 185.08 c 0,14.17 11.49,25.67 25.66,25.67 h 430.77 c 14.18,0 25.67,-11.5 25.67,-25.67 v -185.08 c 0,-14.18 -11.49,-25.67 -25.67,-25.67"
         style="fill:#3f4045;fill-opacity:1;fill-rule:nonzero;stroke:none"
         id="path212" />
      <path
         d="m 3700.83,3750.21 c 1.91,32 38.04,56.24 59.3,68.52 v 393.21 c 0,127.88 103.67,231.55 231.55,231.55 h 295.36 c 127.88,0 231.55,-103.67 231.55,-231.55 v -393.21 c 21.26,-12.28 57.38,-36.52 59.3,-68.52 l -59.3,29.3 v -865.05 c 0,-113.52 -92.02,-205.54 -205.53,-205.54 h -347.4 c -113.51,0 -205.53,92.02 -205.53,205.54 v 865.05 l -59.3,-29.3"
         style="fill:#3bb83e;fill-opacity:1;fill-rule:nonzero;stroke:none"
         id="path216" />
      <path
         d="m 3891.3,3679.23 -109.82,496.91 c 0,120.69 97.84,218.52 218.51,218.52 h 278.73 c 120.68,0 218.52,-97.83 218.52,-218.52 l -109.82,-496.91 c 20.07,-11.58 12.95,-267.95 12.95,-267.95 v -385.74 c 0,-107.13 10.03,-267.78 -97.1,-267.78 h -327.83 c -107.12,0 -96.44,178.26 -96.44,285.38 l -0.65,368.14 c 0,0 -7.12,256.37 12.95,267.95"
         style="fill:#5dc34d;fill-opacity:1;fill-rule:nonzero;stroke:none"
         id="path218" />
      <path
         d="m 3947.98,3043.14 h -35.18 v 578.95 h 35.18 v -578.95"
         style="fill:#3f4045;fill-opacity:1;fill-rule:nonzero;stroke:none"
         id="path220" />
      <path
         d="m 4365.92,3043.14 h -35.18 v 578.95 h 35.18 v -578.95"
         style="fill:#3f4045;fill-opacity:1;fill-rule:nonzero;stroke:none"
         id="path222" />
      <path
         d="m 4400.37,3411.28 c 1.28,95.62 4.82,183.93 14.01,246.39 17.96,122.18 75.46,303.66 75.46,303.66 0,0 0,-331.89 0,-510.79 -29.58,-13.65 -59.46,-26.6 -89.47,-39.26"
         style="fill:#3f4045;fill-opacity:1;fill-rule:nonzero;stroke:none"
         id="path224" />
      <path
         d="m 4474.6,3085.06 c -4.44,-59.91 -8.12,-101.22 -8.12,-101.22 0,0 -66.48,-32.34 -66.48,149.14 0,8.23 -0.01,16.58 -0.02,24.95 25.09,-24.06 49.92,-48.39 74.62,-72.87"
         style="fill:#3f4045;fill-opacity:1;fill-rule:nonzero;stroke:none"
         id="path226" />
      <path
         d="m 4399.93,3179.24 c -0.14,64.41 -0.46,132.07 0.07,197.47 25.46,9.01 50.89,18.09 76.24,27.37 4.53,1.66 9.07,3.32 13.6,4.99 v -1.17 c 0,-88.5 -6.99,-207.09 -13.33,-296.38 -23.98,24.1 -50.73,45.55 -76.58,67.72"
         style="fill:#3f4045;fill-opacity:1;fill-rule:nonzero;stroke:none"
         id="path228" />
      <path
         d="m 3878.35,3411.28 c -1.28,95.62 -4.82,183.93 -14,246.39 -17.97,122.18 -75.47,303.66 -75.47,303.66 0,0 0,-331.89 0,-510.79 29.57,-13.65 59.45,-26.6 89.47,-39.26"
         style="fill:#3f4045;fill-opacity:1;fill-rule:nonzero;stroke:none"
         id="path230" />
      <path
         d="m 3878.35,3411.28 c -1.28,95.62 -4.82,183.93 -14,246.39 -17.97,122.18 -75.47,303.66 -75.47,303.66 0,0 0,-331.89 0,-510.79 29.57,-13.65 59.45,-26.6 89.47,-39.26"
         style="fill:#3f4045;fill-opacity:1;fill-rule:nonzero;stroke:none"
         id="path232" />
      <path
         d="m 3804.12,3085.06 c 4.43,-59.91 8.12,-101.22 8.12,-101.22 0,0 66.48,-32.34 66.48,149.14 0,8.23 0.01,16.58 0.02,24.95 -25.09,-24.06 -49.92,-48.39 -74.62,-72.87"
         style="fill:#3f4045;fill-opacity:1;fill-rule:nonzero;stroke:none"
         id="path234" />
      <path
         d="m 3878.78,3179.24 c 0.15,64.41 0.47,132.07 -0.06,197.47 -25.46,9.01 -50.89,18.09 -76.25,27.37 -4.53,1.66 -9.06,3.32 -13.59,4.99 v -1.17 c 0,-88.5 6.99,-207.09 13.33,-296.38 23.98,24.1 50.72,45.55 76.57,67.72"
         style="fill:#3f4045;fill-opacity:1;fill-rule:nonzero;stroke:none"
         id="path236" />
      <path
         d="m 4139.36,4105.08 c -215.53,0 -305.41,-106.01 -305.41,-106.01 l 57.35,-319.84 h 248.06 248.06 l 57.36,319.84 c 0,0 -89.9,106.01 -305.42,106.01"
         style="fill:#3f4045;fill-opacity:1;fill-rule:nonzero;stroke:none"
         id="path238" />
      <path
         d="m 4396.04,2993.74 c 0,0 -107.49,-54.25 -256.68,-54.25 -149.19,0 -256.68,54.25 -256.68,54.25 -21,-60.18 -29.11,-104.89 -32.09,-148.3 -1.32,-19.26 9.05,-37.43 26.35,-46 45.03,-22.27 140.96,-61.11 262.42,-61.11 121.45,0 217.39,38.84 262.42,61.11 17.3,8.57 27.67,26.74 26.35,46 -2.98,43.41 -11.09,88.12 -32.09,148.3"
         style="fill:#3f4045;fill-opacity:1;fill-rule:nonzero;stroke:none"
         id="path240" />
      <path
         d="m 3940.36,2740.08 c -28.49,32.35 -72.63,50.25 -115.6,46.88 -0.22,-2.58 -0.14,-5.16 0.04,-7.74 33.39,-31.44 77.29,-51.82 125.87,-55.32 -2.38,5.88 -6.2,11.52 -10.31,16.18"
         style="fill:#f14842;fill-opacity:1;fill-rule:nonzero;stroke:none"
         id="path242" />
      <path
         d="m 4338.36,2740.08 c 28.5,32.35 72.63,50.25 115.6,46.88 0.21,-2.58 0.14,-5.16 -0.05,-7.74 -33.39,-31.44 -77.28,-51.82 -125.87,-55.32 2.39,5.88 6.21,11.52 10.32,16.18"
         style="fill:#f14842;fill-opacity:1;fill-rule:nonzero;stroke:none"
         id="path244" />
      <path
         d="m 3812.09,4298.55 c -21.57,31.63 71.87,93.43 99.42,71.87 27.55,-21.56 -81.45,-98.23 -99.42,-71.87"
         style="fill:#eaebd4;fill-opacity:1;fill-rule:nonzero;stroke:none"
         id="path246" />
      <path
         d="m 4466.63,4298.55 c 21.57,31.63 -71.87,93.43 -99.42,71.87 -27.56,-21.56 81.45,-98.23 99.42,-71.87"
         style="fill:#eaebd4;fill-opacity:1;fill-rule:nonzero;stroke:none"
         id="path248" />
      <path
         d="m 1762.57,205.75 c 0,-4.441 0.69,-8.219 2.06,-11.352 1.39,-3.117 3.28,-5.468 5.68,-7.046 2.41,-1.59 5.03,-2.391 7.87,-2.391 2.89,0 5.52,0.758 7.9,2.269 2.38,1.489 4.29,3.809 5.71,6.899 1.42,3.101 2.13,6.98 2.13,11.621 0,4.371 -0.71,8.129 -2.13,11.281 -1.42,3.129 -3.34,5.528 -5.76,7.199 -2.43,1.661 -5.08,2.481 -7.97,2.481 -2.99,0 -5.67,-0.852 -8.04,-2.551 -2.37,-1.699 -4.19,-4.14 -5.5,-7.308 -1.31,-3.204 -1.95,-6.891 -1.95,-11.102 z m 32.25,-24.078 v 1.617 c -2.2,-2.519 -4.37,-4.578 -6.52,-6.148 -2.14,-1.582 -4.46,-2.782 -6.96,-3.602 -2.5,-0.828 -5.24,-1.238 -8.2,-1.238 -3.93,0 -7.56,0.828 -10.9,2.488 -3.34,1.672 -6.24,4.043 -8.68,7.109 -2.45,3.09 -4.3,6.711 -5.56,10.872 -1.26,4.171 -1.89,8.691 -1.89,13.519 0,10.25 2.5,18.25 7.51,23.973 5,5.718 11.59,8.59 19.76,8.59 4.72,0 8.71,-0.821 11.95,-2.422 3.25,-1.629 6.41,-4.129 9.49,-7.481 v 24.192 c 0,3.371 0.68,5.91 2.03,7.629 1.32,1.718 3.24,2.582 5.71,2.582 2.49,0 4.4,-0.782 5.75,-2.36 1.33,-1.601 2.01,-3.922 2.01,-7.012 v -72.308 c 0,-3.133 -0.72,-5.473 -2.16,-7.031 -1.45,-1.551 -3.31,-2.34 -5.6,-2.34 -2.24,0 -4.09,0.808 -5.55,2.429 -1.45,1.629 -2.19,3.93 -2.19,6.942"
         style="fill:#7a747b;fill-opacity:1;fill-rule:nonzero;stroke:none"
         id="path250" />
      <path
         d="m 1835.06,210.922 h 29.73 c -0.4,5.598 -1.91,9.797 -4.54,12.59 -2.61,2.777 -6.07,4.168 -10.36,4.168 -4.07,0 -7.44,-1.41 -10.05,-4.239 -2.63,-2.812 -4.22,-6.992 -4.78,-12.519 z m 32.06,-9.32 h -32.06 c 0.03,-3.711 0.78,-7 2.26,-9.84 1.45,-2.84 3.4,-4.992 5.81,-6.43 2.44,-1.441 5.1,-2.16 8.02,-2.16 1.97,0 3.76,0.226 5.38,0.687 1.62,0.473 3.19,1.18 4.72,2.172 1.52,0.969 2.92,2.028 4.2,3.149 1.29,1.121 2.94,2.652 4.98,4.57 0.84,0.719 2.05,1.07 3.62,1.07 1.68,0 3.03,-0.461 4.07,-1.379 1.05,-0.929 1.57,-2.222 1.57,-3.91 0,-1.472 -0.58,-3.199 -1.74,-5.179 -1.17,-1.993 -2.91,-3.903 -5.26,-5.723 -2.35,-1.82 -5.28,-3.32 -8.84,-4.527 -3.53,-1.204 -7.61,-1.801 -12.21,-1.801 -10.54,0 -18.72,3.008 -24.57,9.008 -5.83,5.992 -8.76,14.152 -8.76,24.441 0,4.852 0.71,9.352 2.15,13.492 1.44,4.149 3.55,7.688 6.31,10.656 2.76,2.961 6.17,5.231 10.21,6.821 4.04,1.582 8.53,2.363 13.46,2.363 6.4,0 11.9,-1.344 16.48,-4.051 4.59,-2.711 8.02,-6.191 10.3,-10.472 2.28,-4.297 3.43,-8.661 3.43,-13.09 0,-4.137 -1.18,-6.797 -3.55,-8.028 -2.35,-1.222 -5.68,-1.839 -9.98,-1.839"
         style="fill:#7a747b;fill-opacity:1;fill-rule:nonzero;stroke:none"
         id="path252" />
      <path
         d="m 1941.85,193.75 c 0,-4.531 -1.09,-8.41 -3.31,-11.641 -2.19,-3.207 -5.45,-5.648 -9.76,-7.32 -4.3,-1.66 -9.54,-2.488 -15.7,-2.488 -5.88,0 -10.93,0.898 -15.14,2.699 -4.21,1.801 -7.3,4.059 -9.31,6.762 -2,2.699 -3,5.41 -3,8.129 0,1.808 0.63,3.351 1.93,4.629 1.28,1.269 2.9,1.921 4.86,1.921 1.72,0 3.03,-0.41 3.96,-1.25 0.91,-0.851 1.8,-2.043 2.64,-3.55 1.68,-2.942 3.69,-5.102 6.05,-6.551 2.34,-1.449 5.52,-2.16 9.57,-2.16 3.28,0 5.98,0.73 8.07,2.199 2.11,1.461 3.16,3.121 3.16,5.012 0,2.89 -1.08,4.98 -3.28,6.3 -2.17,1.321 -5.77,2.579 -10.78,3.789 -5.63,1.399 -10.23,2.879 -13.78,4.418 -3.55,1.532 -6.37,3.563 -8.5,6.082 -2.12,2.54 -3.18,5.649 -3.18,9.321 0,3.281 0.98,6.39 2.94,9.32 1.96,2.91 4.87,5.238 8.69,6.988 3.81,1.75 8.43,2.61 13.83,2.61 4.25,0 8.06,-0.43 11.45,-1.317 3.38,-0.882 6.21,-2.07 8.46,-3.55 2.27,-1.481 3.99,-3.122 5.17,-4.911 1.19,-1.812 1.76,-3.562 1.76,-5.289 0,-1.89 -0.62,-3.433 -1.88,-4.632 -1.25,-1.2 -3.05,-1.809 -5.37,-1.809 -1.69,0 -3.11,0.48 -4.3,1.461 -1.18,0.949 -2.52,2.387 -4.06,4.308 -1.24,1.602 -2.69,2.879 -4.37,3.852 -1.68,0.969 -3.97,1.438 -6.86,1.438 -2.96,0 -5.42,-0.629 -7.39,-1.899 -1.95,-1.25 -2.93,-2.82 -2.93,-4.711 0,-1.719 0.72,-3.129 2.16,-4.23 1.43,-1.11 3.38,-2.032 5.83,-2.739 2.44,-0.711 5.8,-1.589 10.1,-2.64 5.06,-1.25 9.22,-2.731 12.45,-4.442 3.22,-1.718 5.67,-3.757 7.33,-6.097 1.66,-2.352 2.49,-5.012 2.49,-8.012"
         style="fill:#7a747b;fill-opacity:1;fill-rule:nonzero;stroke:none"
         id="path254" />
      <path
         d="m 1966.71,229.66 v -47.379 c 0,-3.293 -0.77,-5.793 -2.34,-7.461 -1.57,-1.679 -3.54,-2.519 -5.95,-2.519 -2.41,0 -4.36,0.847 -5.86,2.57 -1.5,1.731 -2.25,4.199 -2.25,7.41 v 46.91 c 0,3.231 0.75,5.668 2.25,7.321 1.5,1.636 3.45,2.457 5.86,2.457 2.41,0 4.38,-0.821 5.95,-2.457 1.57,-1.653 2.34,-3.922 2.34,-6.852 z m -8.11,16.93 c -2.29,0 -4.23,0.711 -5.85,2.109 -1.63,1.403 -2.44,3.383 -2.44,5.949 0,2.321 0.83,4.231 2.49,5.731 1.67,1.512 3.6,2.262 5.8,2.262 2.12,0 4,-0.68 5.65,-2.039 1.64,-1.372 2.46,-3.34 2.46,-5.954 0,-2.527 -0.8,-4.496 -2.41,-5.918 -1.6,-1.421 -3.5,-2.14 -5.7,-2.14"
         style="fill:#7a747b;fill-opacity:1;fill-rule:nonzero;stroke:none"
         id="path256" />
      <path
         d="m 1991.04,206.172 c 0,-6.641 1.44,-11.672 4.35,-15.07 2.9,-3.411 6.65,-5.11 11.26,-5.11 2.71,0 5.29,0.727 7.71,2.188 2.43,1.468 4.4,3.672 5.92,6.621 1.52,2.937 2.28,6.508 2.28,10.711 0,6.687 -1.47,11.898 -4.42,15.609 -2.94,3.731 -6.81,5.59 -11.62,5.59 -4.68,0 -8.43,-1.781 -11.25,-5.34 -2.83,-3.562 -4.23,-8.641 -4.23,-15.199 z m 47.51,20.777 v -47.617 c 0,-5.453 -0.59,-10.141 -1.76,-14.062 -1.15,-3.918 -3.01,-7.168 -5.58,-9.731 -2.57,-2.559 -5.91,-4.469 -10.05,-5.699 -4.15,-1.25 -9.31,-1.871 -15.47,-1.871 -5.65,0 -10.7,0.793 -15.14,2.371 -4.44,1.582 -7.86,3.629 -10.27,6.129 -2.4,2.5 -3.61,5.07 -3.61,7.722 0,2 0.68,3.629 2.05,4.891 1.35,1.27 3,1.898 4.92,1.898 2.4,0 4.5,-1.07 6.32,-3.191 0.87,-1.07 1.78,-2.168 2.72,-3.269 0.94,-1.11 1.99,-2.051 3.12,-2.829 1.15,-0.769 2.52,-1.351 4.11,-1.73 1.6,-0.371 3.45,-0.57 5.54,-0.57 4.24,0 7.53,0.578 9.88,1.757 2.34,1.184 3.99,2.84 4.92,4.961 0.94,2.121 1.5,4.391 1.65,6.821 0.17,2.422 0.28,6.32 0.36,11.691 -2.52,-3.531 -5.42,-6.211 -8.74,-8.062 -3.31,-1.829 -7.23,-2.758 -11.8,-2.758 -5.48,0 -10.27,1.41 -14.38,4.211 -4.11,2.797 -7.27,6.73 -9.46,11.769 -2.21,5.039 -3.3,10.86 -3.3,17.481 0,4.918 0.66,9.359 2.01,13.34 1.34,3.957 3.25,7.296 5.73,10.027 2.49,2.723 5.35,4.762 8.59,6.152 3.24,1.367 6.8,2.071 10.7,2.071 4.63,0 8.65,-0.891 12.07,-2.672 3.39,-1.789 6.56,-4.59 9.49,-8.391 v 2.231 c 0,2.839 0.69,5.039 2.09,6.609 1.4,1.551 3.22,2.34 5.41,2.34 3.17,0 5.26,-1.028 6.3,-3.09 1.05,-2.059 1.58,-5.039 1.58,-8.93"
         style="fill:#7a747b;fill-opacity:1;fill-rule:nonzero;stroke:none"
         id="path258" />
      <path
         d="m 2064.6,229.898 v -1.976 c 2.88,3.797 6.03,6.59 9.46,8.379 3.43,1.781 7.35,2.668 11.8,2.668 4.33,0 8.19,-0.938 11.6,-2.821 3.39,-1.886 5.95,-4.558 7.62,-7.988 1.09,-2 1.79,-4.172 2.1,-6.488 0.32,-2.313 0.49,-5.281 0.49,-8.891 v -30.5 c 0,-3.293 -0.76,-5.793 -2.26,-7.461 -1.49,-1.679 -3.44,-2.519 -5.85,-2.519 -2.45,0 -4.42,0.847 -5.94,2.57 -1.54,1.731 -2.29,4.199 -2.29,7.41 v 27.328 c 0,5.403 -0.75,9.532 -2.25,12.391 -1.51,2.852 -4.49,4.301 -8.99,4.301 -2.92,0 -5.57,-0.871 -7.98,-2.621 -2.4,-1.739 -4.17,-4.129 -5.28,-7.18 -0.81,-2.441 -1.21,-7 -1.21,-13.691 v -20.528 c 0,-3.32 -0.78,-5.82 -2.31,-7.492 -1.54,-1.66 -3.53,-2.488 -5.97,-2.488 -2.37,0 -4.31,0.847 -5.83,2.57 -1.52,1.731 -2.29,4.199 -2.29,7.41 v 47.379 c 0,3.121 0.69,5.461 2.05,7 1.36,1.539 3.22,2.309 5.58,2.309 1.45,0 2.75,-0.34 3.91,-1.02 1.15,-0.679 2.09,-1.699 2.79,-3.058 0.7,-1.36 1.05,-3.032 1.05,-4.993"
         style="fill:#7a747b;fill-opacity:1;fill-rule:nonzero;stroke:none"
         id="path260" />
      <path
         d="m 2132.29,210.922 h 29.73 c -0.4,5.598 -1.91,9.797 -4.53,12.59 -2.63,2.777 -6.08,4.168 -10.37,4.168 -4.08,0 -7.44,-1.41 -10.06,-4.239 -2.63,-2.812 -4.21,-6.992 -4.77,-12.519 z m 32.07,-9.32 h -32.07 c 0.04,-3.711 0.79,-7 2.25,-9.84 1.47,-2.84 3.4,-4.992 5.83,-6.43 2.42,-1.441 5.09,-2.16 8.01,-2.16 1.97,0 3.75,0.226 5.38,0.687 1.62,0.473 3.19,1.18 4.72,2.172 1.51,0.969 2.92,2.028 4.21,3.149 1.27,1.121 2.93,2.652 4.98,4.57 0.84,0.719 2.04,1.07 3.59,1.07 1.69,0 3.06,-0.461 4.1,-1.379 1.04,-0.929 1.55,-2.222 1.55,-3.91 0,-1.472 -0.58,-3.199 -1.74,-5.179 -1.16,-1.993 -2.91,-3.903 -5.26,-5.723 -2.33,-1.82 -5.28,-3.32 -8.82,-4.527 -3.55,-1.204 -7.62,-1.801 -12.22,-1.801 -10.54,0 -18.72,3.008 -24.57,9.008 -5.84,5.992 -8.77,14.152 -8.77,24.441 0,4.852 0.72,9.352 2.16,13.492 1.45,4.149 3.55,7.688 6.31,10.656 2.76,2.961 6.17,5.231 10.21,6.821 4.04,1.582 8.53,2.363 13.46,2.363 6.41,0 11.89,-1.344 16.48,-4.051 4.59,-2.711 8.02,-6.191 10.31,-10.472 2.27,-4.297 3.42,-8.661 3.42,-13.09 0,-4.137 -1.18,-6.797 -3.55,-8.028 -2.36,-1.222 -5.68,-1.839 -9.97,-1.839"
         style="fill:#7a747b;fill-opacity:1;fill-rule:nonzero;stroke:none"
         id="path262" />
      <path
         d="m 2198.95,205.75 c 0,-4.441 0.69,-8.219 2.08,-11.352 1.37,-3.117 3.27,-5.468 5.68,-7.046 2.39,-1.59 5.01,-2.391 7.85,-2.391 2.9,0 5.52,0.758 7.91,2.269 2.38,1.489 4.28,3.809 5.7,6.899 1.42,3.101 2.13,6.98 2.13,11.621 0,4.371 -0.71,8.129 -2.13,11.281 -1.42,3.129 -3.35,5.528 -5.76,7.199 -2.43,1.661 -5.08,2.481 -7.96,2.481 -3,0 -5.69,-0.852 -8.05,-2.551 -2.37,-1.699 -4.2,-4.14 -5.5,-7.308 -1.3,-3.204 -1.95,-6.891 -1.95,-11.102 z m 32.26,-24.078 v 1.617 c -2.21,-2.519 -4.38,-4.578 -6.52,-6.148 -2.15,-1.582 -4.47,-2.782 -6.97,-3.602 -2.49,-0.828 -5.23,-1.238 -8.19,-1.238 -3.93,0 -7.56,0.828 -10.9,2.488 -3.35,1.672 -6.24,4.043 -8.69,7.109 -2.44,3.09 -4.29,6.711 -5.55,10.872 -1.26,4.171 -1.9,8.691 -1.9,13.519 0,10.25 2.5,18.25 7.51,23.973 5.01,5.718 11.6,8.59 19.77,8.59 4.72,0 8.71,-0.821 11.95,-2.422 3.24,-1.629 6.4,-4.129 9.49,-7.481 v 24.192 c 0,3.371 0.67,5.91 2.01,7.629 1.35,1.718 3.25,2.582 5.74,2.582 2.48,0 4.39,-0.782 5.72,-2.36 1.35,-1.601 2.02,-3.922 2.02,-7.012 v -72.308 c 0,-3.133 -0.71,-5.473 -2.15,-7.031 -1.45,-1.551 -3.31,-2.34 -5.59,-2.34 -2.25,0 -4.1,0.808 -5.56,2.429 -1.47,1.629 -2.19,3.93 -2.19,6.942"
         style="fill:#7a747b;fill-opacity:1;fill-rule:nonzero;stroke:none"
         id="path264" />
      <path
         d="m 2299.01,205.27 c 0,-6.52 1.48,-11.532 4.47,-15.04 2.98,-3.511 6.91,-5.269 11.75,-5.269 4.12,0 7.68,1.801 10.65,5.391 2.99,3.589 4.48,8.707 4.48,15.398 0,4.332 -0.61,8.059 -1.86,11.18 -1.24,3.121 -3,5.531 -5.28,7.23 -2.28,1.699 -4.95,2.551 -7.99,2.551 -3.13,0 -5.92,-0.852 -8.35,-2.551 -2.45,-1.699 -4.37,-4.16 -5.77,-7.379 -1.4,-3.222 -2.1,-7.062 -2.1,-11.511 z m -0.78,48.71 v -25.031 c 3.08,3.192 6.23,5.653 9.43,7.352 3.2,1.691 7.16,2.551 11.89,2.551 5.45,0 10.22,-1.282 14.33,-3.872 4.09,-2.589 7.28,-6.339 9.54,-11.242 2.26,-4.898 3.41,-10.707 3.41,-17.449 0,-4.957 -0.63,-9.508 -1.9,-13.66 -1.27,-4.137 -3.09,-7.738 -5.49,-10.77 -2.41,-3.05 -5.33,-5.398 -8.75,-7.07 -3.42,-1.66 -7.2,-2.488 -11.32,-2.488 -2.52,0 -4.9,0.301 -7.12,0.898 -2.22,0.602 -4.12,1.383 -5.67,2.383 -1.57,0.969 -2.89,1.977 -4,3.02 -1.1,1.039 -2.56,2.609 -4.35,4.687 v -1.617 c 0,-3.09 -0.74,-5.41 -2.23,-7.012 -1.47,-1.57 -3.35,-2.359 -5.64,-2.359 -2.32,0 -4.18,0.789 -5.56,2.359 -1.38,1.602 -2.07,3.922 -2.07,7.012 v 71.598 c 0,3.32 0.67,5.832 2.01,7.539 1.34,1.691 3.21,2.543 5.62,2.543 2.52,0 4.46,-0.801 5.82,-2.422 1.35,-1.629 2.05,-3.938 2.05,-6.95"
         style="fill:#7a747b;fill-opacity:1;fill-rule:nonzero;stroke:none"
         id="path266" />
      <path
         d="m 2368.08,170.25 1.5,3.672 -20.18,50.82 c -1.24,2.918 -1.86,5.047 -1.86,6.36 0,1.41 0.36,2.707 1.07,3.898 0.73,1.211 1.72,2.18 2.98,2.879 1.26,0.73 2.57,1.09 3.93,1.09 2.37,0 4.15,-0.75 5.35,-2.25 1.21,-1.5 2.26,-3.637 3.18,-6.457 l 13.88,-40.371 13.15,37.55 c 1.04,3.028 1.99,5.418 2.82,7.149 0.85,1.73 1.73,2.879 2.68,3.48 0.93,0.602 2.27,0.899 4,0.899 1.25,0 2.43,-0.328 3.57,-0.989 1.14,-0.66 2.03,-1.55 2.64,-2.679 0.61,-1.11 0.94,-2.289 0.94,-3.531 -0.18,-0.758 -0.42,-1.848 -0.79,-3.25 -0.36,-1.399 -0.8,-2.84 -1.32,-4.258 l -21.39,-55.992 c -1.83,-4.918 -3.64,-8.778 -5.4,-11.579 -1.77,-2.8 -4.08,-4.972 -6.99,-6.461 -2.91,-1.511 -6.83,-2.261 -11.75,-2.261 -4.8,0 -8.41,0.531 -10.8,1.562 -2.42,1.051 -3.62,2.949 -3.62,5.707 0,1.883 0.57,3.332 1.72,4.364 1.14,1.019 2.83,1.527 5.07,1.527 0.88,0 1.74,-0.117 2.59,-0.367 1.03,-0.231 1.94,-0.364 2.69,-0.364 1.88,0 3.37,0.282 4.46,0.852 1.08,0.559 2.03,1.531 2.91,2.91 0.86,1.371 1.85,3.422 2.97,6.09"
         style="fill:#7a747b;fill-opacity:1;fill-rule:nonzero;stroke:none"
         id="path268" />
      <path
         d="m 2605.62,237.551 h 3.92 v 4.929 c 0,5.149 0.63,9.211 1.92,12.25 1.3,3.02 3.53,5.219 6.64,6.602 3.1,1.387 7.35,2.066 12.74,2.066 9.62,0 14.38,-2.328 14.38,-7.046 0,-1.512 -0.5,-2.813 -1.51,-3.891 -0.98,-1.059 -2.18,-1.621 -3.53,-1.621 -0.64,0 -1.77,0.129 -3.33,0.379 -1.51,0.211 -2.88,0.351 -3.95,0.351 -2.96,0 -4.85,-0.89 -5.72,-2.621 -0.8,-1.738 -1.23,-4.23 -1.23,-7.488 v -3.91 h 3.99 c 6.26,0 9.38,-1.879 9.38,-5.66 0,-2.649 -0.8,-4.36 -2.49,-5.09 -1.66,-0.731 -3.95,-1.082 -6.89,-1.082 h -3.99 V 182.27 c 0,-3.239 -0.77,-5.7 -2.35,-7.399 -1.52,-1.723 -3.5,-2.562 -5.96,-2.562 -2.32,0 -4.24,0.839 -5.79,2.562 -1.56,1.699 -2.31,4.16 -2.31,7.399 v 43.449 h -4.52 c -2.45,0 -4.32,0.531 -5.65,1.652 -1.31,1.09 -1.99,2.527 -1.99,4.289 0,3.949 2.75,5.891 8.24,5.891"
         style="fill:#7a747b;fill-opacity:1;fill-rule:nonzero;stroke:none"
         id="path270" />
      <path
         d="m 2659.32,195.98 v -13.71 c 0,-3.309 -0.84,-5.809 -2.37,-7.469 -1.56,-1.672 -3.53,-2.492 -5.92,-2.492 -2.43,0 -4.35,0.832 -5.87,2.531 -1.5,1.672 -2.28,4.148 -2.28,7.43 v 45.679 c 0,7.371 2.65,11.051 7.97,11.051 2.74,0 4.71,-0.852 5.91,-2.57 1.2,-1.731 1.86,-4.27 2,-7.641 1.95,3.371 3.94,5.91 6,7.641 2.1,1.718 4.82,2.57 8.29,2.57 3.45,0 6.77,-0.852 10.02,-2.57 3.26,-1.731 4.88,-4.039 4.88,-6.871 0,-1.977 -0.7,-3.661 -2.07,-4.938 -1.39,-1.32 -2.86,-1.969 -4.46,-1.969 -0.64,0 -2.1,0.399 -4.38,1.137 -2.31,0.711 -4.34,1.09 -6.1,1.09 -2.39,0 -4.37,-0.649 -5.88,-1.879 -1.53,-1.301 -2.74,-3.148 -3.58,-5.621 -0.82,-2.488 -1.37,-5.469 -1.72,-8.867 -0.3,-3.43 -0.44,-7.614 -0.44,-12.532"
         style="fill:#7a747b;fill-opacity:1;fill-rule:nonzero;stroke:none"
         id="path272" />
      <path
         d="m 2702.61,210.949 h 29.73 c -0.4,5.59 -1.88,9.793 -4.51,12.563 -2.64,2.797 -6.06,4.179 -10.38,4.179 -4.07,0 -7.44,-1.39 -10.07,-4.23 -2.61,-2.82 -4.22,-6.992 -4.77,-12.512 m 32.1,-9.328 h -32.1 c 0.07,-3.723 0.79,-7.019 2.24,-9.851 1.49,-2.829 3.42,-4.969 5.85,-6.43 2.43,-1.438 5.09,-2.149 8.02,-2.149 1.97,0 3.75,0.207 5.38,0.7 1.59,0.441 3.18,1.168 4.72,2.16 1.52,0.961 2.9,2.008 4.19,3.16 1.29,1.098 2.96,2.629 5,4.539 0.85,0.719 2.05,1.102 3.58,1.102 1.71,0 3.06,-0.461 4.11,-1.403 1.06,-0.929 1.55,-2.219 1.55,-3.91 0,-1.48 -0.57,-3.199 -1.7,-5.168 -1.19,-2.012 -2.93,-3.902 -5.28,-5.742 -2.37,-1.789 -5.3,-3.328 -8.84,-4.508 -3.54,-1.199 -7.62,-1.812 -12.22,-1.812 -10.56,0 -18.74,2.992 -24.57,8.992 -5.85,6.019 -8.81,14.179 -8.81,24.461 0,4.859 0.74,9.359 2.21,13.508 1.4,4.16 3.51,7.679 6.31,10.671 2.75,2.969 6.14,5.239 10.19,6.821 4.03,1.57 8.52,2.359 13.47,2.359 6.38,0 11.88,-1.351 16.47,-4.082 4.58,-2.68 8.06,-6.18 10.3,-10.457 2.3,-4.32 3.43,-8.66 3.43,-13.113 0,-4.11 -1.19,-6.778 -3.54,-8.008 -2.37,-1.219 -5.69,-1.84 -9.96,-1.84"
         style="fill:#7a747b;fill-opacity:1;fill-rule:nonzero;stroke:none"
         id="path274" />
      <path
         d="m 2770.84,210.949 h 29.73 c -0.39,5.59 -1.93,9.793 -4.53,12.563 -2.65,2.797 -6.08,4.179 -10.39,4.179 -4.07,0 -7.44,-1.39 -10.07,-4.23 -2.6,-2.82 -4.21,-6.992 -4.74,-12.512 m 32.08,-9.328 h -32.08 c 0.03,-3.723 0.79,-7.019 2.25,-9.851 1.45,-2.829 3.39,-4.969 5.81,-6.43 2.43,-1.438 5.09,-2.149 8.04,-2.149 1.96,0 3.75,0.207 5.34,0.7 1.65,0.441 3.2,1.168 4.75,2.16 1.52,0.961 2.9,2.008 4.2,3.16 1.25,1.098 2.93,2.629 4.98,4.539 0.86,0.719 2.06,1.102 3.59,1.102 1.7,0 3.06,-0.461 4.13,-1.403 1.02,-0.929 1.51,-2.219 1.51,-3.91 0,-1.48 -0.56,-3.199 -1.73,-5.168 -1.12,-2.012 -2.88,-3.902 -5.25,-5.742 -2.34,-1.789 -5.32,-3.328 -8.82,-4.508 -3.53,-1.199 -7.64,-1.812 -12.24,-1.812 -10.54,0 -18.71,2.992 -24.58,8.992 -5.84,6.019 -8.79,14.179 -8.79,24.461 0,4.859 0.74,9.359 2.21,13.508 1.43,4.16 3.54,7.679 6.3,10.671 2.74,2.969 6.15,5.239 10.2,6.821 4.03,1.57 8.54,2.359 13.46,2.359 6.39,0 11.89,-1.351 16.53,-4.082 4.55,-2.68 8,-6.18 10.25,-10.457 2.28,-4.32 3.46,-8.66 3.46,-13.113 0,-4.11 -1.23,-6.778 -3.56,-8.008 -2.37,-1.219 -5.69,-1.84 -9.96,-1.84"
         style="fill:#7a747b;fill-opacity:1;fill-rule:nonzero;stroke:none"
         id="path276" />
      <path
         d="m 2870.99,205.961 c 0,4.32 -0.68,8.039 -2,11.129 -1.31,3.129 -3.14,5.492 -5.46,7.14 -2.34,1.668 -4.96,2.512 -7.8,2.512 -4.52,0 -8.34,-1.801 -11.43,-5.332 -3.13,-3.59 -4.69,-8.828 -4.69,-15.769 0,-6.5 1.55,-11.602 4.67,-15.219 3.06,-3.621 6.85,-5.434 11.45,-5.434 2.71,0 5.25,0.793 7.58,2.352 2.33,1.601 4.2,3.969 5.58,7.129 1.39,3.183 2.1,7 2.1,11.492 m -32.15,23.82 v -1.972 c 3.06,3.8 6.28,6.589 9.64,8.371 3.28,1.8 7.08,2.711 11.27,2.711 5.03,0 9.7,-1.321 13.96,-3.911 4.24,-2.621 7.58,-6.429 10.04,-11.429 2.47,-5.02 3.71,-10.93 3.71,-17.789 0,-5.032 -0.71,-9.692 -2.13,-13.91 -1.41,-4.223 -3.4,-7.77 -5.87,-10.633 -2.49,-2.84 -5.4,-5.059 -8.79,-6.61 -3.42,-1.519 -7.03,-2.3 -10.92,-2.3 -4.66,0 -8.62,0.933 -11.8,2.832 -3.17,1.851 -6.21,4.64 -9.11,8.257 v -24.617 c 0,-7.179 -2.64,-10.812 -7.86,-10.812 -3.12,0 -5.12,0.933 -6.16,2.781 -0.95,1.891 -1.47,4.57 -1.47,8.16 v 70.789 c 0,3.133 0.67,5.43 2.01,7 1.37,1.512 3.24,2.301 5.62,2.301 2.32,0 4.21,-0.789 5.65,-2.359 1.49,-1.61 2.21,-3.86 2.21,-6.86"
         style="fill:#7a747b;fill-opacity:1;fill-rule:nonzero;stroke:none"
         id="path278" />
      <path
         d="m 2912.09,229.699 v -47.437 c 0,-3.274 -0.77,-5.75 -2.33,-7.422 -1.58,-1.699 -3.55,-2.531 -5.96,-2.531 -2.4,0 -4.33,0.839 -5.87,2.562 -1.48,1.758 -2.24,4.219 -2.24,7.391 v 46.968 c 0,3.219 0.76,5.649 2.24,7.29 1.54,1.679 3.47,2.48 5.87,2.48 2.41,0 4.38,-0.801 5.96,-2.48 1.56,-1.641 2.33,-3.918 2.33,-6.821 m -8.12,16.93 c -2.29,0 -4.22,0.723 -5.84,2.133 -1.64,1.41 -2.44,3.359 -2.44,5.918 0,2.32 0.82,4.242 2.5,5.761 1.66,1.469 3.58,2.25 5.78,2.25 2.14,0 4.03,-0.691 5.66,-2.031 1.64,-1.379 2.46,-3.379 2.46,-5.98 0,-2.532 -0.8,-4.489 -2.38,-5.918 -1.61,-1.41 -3.51,-2.133 -5.74,-2.133"
         style="fill:#7a747b;fill-opacity:1;fill-rule:nonzero;stroke:none"
         id="path280" />
      <path
         d="m 2964.97,179.801 -14.45,23.801 -8.91,-8.391 v -13.063 c 0,-3.16 -0.84,-5.578 -2.51,-7.277 -1.62,-1.723 -3.58,-2.562 -5.73,-2.562 -2.52,0 -4.52,0.832 -5.96,2.531 -1.42,1.672 -2.16,4.148 -2.16,7.43 v 69.972 c 0,3.61 0.73,6.379 2.08,8.297 1.42,1.93 3.45,2.859 6.04,2.859 2.53,0 4.51,-0.859 6,-2.597 1.49,-1.719 2.24,-4.27 2.24,-7.61 v -39.793 l 18.44,19.364 c 2.29,2.39 4,4.058 5.22,4.929 1.2,0.868 2.66,1.309 4.37,1.309 2.07,0 3.76,-0.648 5.15,-1.949 1.34,-1.309 2.04,-2.942 2.04,-4.891 0,-2.39 -2.25,-5.621 -6.68,-9.621 l -8.7,-7.988 16.81,-26.442 c 1.22,-2 2.14,-3.437 2.68,-4.48 0.53,-0.988 0.83,-2.02 0.83,-2.918 0,-2.602 -0.74,-4.641 -2.16,-6.16 -1.42,-1.5 -3.32,-2.242 -5.62,-2.242 -1.99,0 -3.55,0.511 -4.63,1.621 -1.07,1.09 -2.56,3.062 -4.39,5.871"
         style="fill:#7a747b;fill-opacity:1;fill-rule:nonzero;stroke:none"
         id="path282" />
      <path
         d="m 3000.6,172.309 c -2.49,0 -4.59,0.8 -6.41,2.421 -1.8,1.559 -2.72,3.821 -2.72,6.731 0,2.43 0.87,4.539 2.61,6.277 1.73,1.774 3.84,2.653 6.37,2.653 2.51,0 4.64,-0.879 6.45,-2.61 1.77,-1.73 2.68,-3.859 2.68,-6.32 0,-2.871 -0.91,-5.109 -2.68,-6.711 -1.81,-1.641 -3.9,-2.441 -6.3,-2.441"
         style="fill:#7a747b;fill-opacity:1;fill-rule:nonzero;stroke:none"
         id="path284" />
      <path
         d="m 3082.17,192.609 c 0,-2.019 -0.61,-4.23 -1.85,-6.55 -1.21,-2.329 -3.08,-4.528 -5.59,-6.629 -2.49,-2.098 -5.64,-3.801 -9.46,-5.071 -3.79,-1.277 -8.1,-1.949 -12.84,-1.949 -10.15,0 -18.06,2.969 -23.76,8.86 -5.66,5.921 -8.51,13.851 -8.51,23.781 0,6.75 1.29,12.679 3.91,17.859 2.58,5.149 6.35,9.16 11.27,11.969 4.93,2.84 10.85,4.242 17.67,4.242 4.26,0 8.14,-0.609 11.72,-1.859 3.54,-1.231 6.52,-2.864 9.01,-4.801 2.44,-1.992 4.33,-4.07 5.62,-6.27 1.31,-2.222 1.95,-4.312 1.95,-6.25 0,-1.941 -0.72,-3.609 -2.18,-4.98 -1.47,-1.359 -3.26,-2.051 -5.29,-2.051 -1.39,0 -2.52,0.36 -3.42,1.059 -0.92,0.703 -1.93,1.82 -3.04,3.41 -2,3.031 -4.08,5.34 -6.29,6.832 -2.18,1.539 -4.93,2.289 -8.31,2.289 -4.81,0 -8.75,-1.879 -11.73,-5.668 -2.95,-3.773 -4.44,-8.973 -4.44,-15.523 0,-3.09 0.39,-5.938 1.16,-8.52 0.75,-2.578 1.84,-4.777 3.28,-6.598 1.46,-1.832 3.2,-3.199 5.23,-4.14 2.05,-0.969 4.32,-1.43 6.73,-1.43 3.3,0 6.12,0.758 8.45,2.277 2.38,1.532 4.45,3.844 6.24,6.973 1.01,1.828 2.08,3.27 3.23,4.32 1.15,1.028 2.58,1.59 4.26,1.59 2,0 3.68,-0.793 4.98,-2.301 1.32,-1.519 2,-3.16 2,-4.871"
         style="fill:#7a747b;fill-opacity:1;fill-rule:nonzero;stroke:none"
         id="path286" />
      <path
         d="m 3136.46,205.641 c 0,6.699 -1.46,11.898 -4.4,15.609 -2.93,3.781 -6.88,5.629 -11.85,5.629 -3.21,0 -6.05,-0.84 -8.5,-2.488 -2.44,-1.672 -4.31,-4.129 -5.62,-7.371 -1.32,-3.25 -2,-7.04 -2,-11.379 0,-4.282 0.66,-8.012 1.95,-11.219 1.32,-3.231 3.19,-5.672 5.61,-7.371 2.44,-1.68 5.28,-2.559 8.56,-2.559 4.97,0 8.92,1.879 11.85,5.649 2.94,3.73 4.4,8.918 4.4,15.5 m 16.48,0 c 0,-4.871 -0.76,-9.379 -2.26,-13.52 -1.56,-4.129 -3.74,-7.68 -6.63,-10.633 -2.88,-2.949 -6.34,-5.218 -10.32,-6.816 -4.03,-1.563 -8.52,-2.371 -13.52,-2.371 -4.97,0 -9.45,0.808 -13.42,2.429 -3.94,1.559 -7.41,3.872 -10.29,6.829 -2.91,3.011 -5.1,6.55 -6.64,10.613 -1.45,4.066 -2.22,8.558 -2.22,13.469 0,4.98 0.78,9.531 2.27,13.648 1.54,4.141 3.71,7.66 6.57,10.582 2.86,2.918 6.28,5.168 10.31,6.77 4.07,1.57 8.53,2.359 13.42,2.359 4.97,0 9.47,-0.789 13.52,-2.41 4.04,-1.59 7.48,-3.879 10.39,-6.82 2.89,-3.008 5.08,-6.508 6.58,-10.579 1.48,-4.121 2.24,-8.601 2.24,-13.55"
         style="fill:#7a747b;fill-opacity:1;fill-rule:nonzero;stroke:none"
         id="path288" />
      <path
         d="m 3215.5,204.43 v -21.778 c 0,-3.461 -0.76,-6.023 -2.35,-7.781 -1.58,-1.723 -3.6,-2.57 -6.18,-2.57 -2.47,0 -4.52,0.847 -6.01,2.57 -1.57,1.758 -2.36,4.32 -2.36,7.781 v 26.118 c 0,4.128 -0.12,7.339 -0.4,9.64 -0.28,2.231 -1.05,4.141 -2.27,5.578 -1.25,1.492 -3.23,2.223 -5.9,2.223 -5.38,0 -8.9,-1.82 -10.62,-5.57 -1.68,-3.649 -2.54,-8.942 -2.54,-15.852 v -22.137 c 0,-3.41 -0.79,-5.992 -2.3,-7.754 -1.57,-1.718 -3.58,-2.597 -6.1,-2.597 -2.5,0 -4.52,0.879 -6.11,2.597 -1.59,1.762 -2.37,4.344 -2.37,7.754 v 46.907 c 0,3.101 0.69,5.441 2.11,7.031 1.44,1.621 3.33,2.41 5.62,2.41 2.26,0 4.13,-0.781 5.64,-2.238 1.5,-1.512 2.25,-3.59 2.25,-6.223 v -1.559 c 2.87,3.379 5.9,5.891 9.13,7.469 3.26,1.641 6.84,2.442 10.84,2.442 4.11,0 7.64,-0.832 10.6,-2.461 2.97,-1.649 5.39,-4.149 7.34,-7.45 2.77,3.329 5.75,5.829 8.91,7.469 3.17,1.621 6.66,2.442 10.52,2.442 4.46,0 8.35,-0.911 11.59,-2.661 3.22,-1.761 5.66,-4.3 7.26,-7.55 1.39,-3 2.09,-7.649 2.09,-14.02 v -32.008 c 0,-3.461 -0.77,-6.023 -2.33,-7.781 -1.55,-1.723 -3.63,-2.57 -6.19,-2.57 -2.49,0 -4.51,0.879 -6.1,2.597 -1.58,1.762 -2.38,4.344 -2.38,7.754 v 27.567 c 0,3.543 -0.15,6.351 -0.44,8.472 -0.3,2.129 -1.11,3.918 -2.42,5.348 -1.33,1.441 -3.36,2.172 -6.02,2.172 -2.16,0 -4.21,-0.672 -6.16,-1.941 -1.95,-1.25 -3.45,-3.02 -4.56,-5.141 -1.17,-2.77 -1.79,-7.66 -1.79,-14.699"
         style="fill:#7a747b;fill-opacity:1;fill-rule:nonzero;stroke:none"
         id="path290" />
      <path
         d="m 2452.15,209.621 c -0.01,0.02 -0.01,0.051 -0.01,0.109 0,-0.058 0,-0.089 0.01,-0.109"
         style="fill:#7a747b;fill-opacity:1;fill-rule:nonzero;stroke:none"
         id="path292" />
      <path
         d="m 2452.98,204.371 c 0.02,0 0.02,0 0.02,0 -0.31,1.488 -0.56,2.969 -0.74,4.438 0.18,-1.477 0.43,-2.957 0.72,-4.438"
         style="fill:#7a747b;fill-opacity:1;fill-rule:nonzero;stroke:none"
         id="path294" />
      <path
         d="m 2458.4,189.148 c -0.03,0.063 -0.06,0.153 -0.09,0.223 0.03,-0.07 0.06,-0.16 0.09,-0.223"
         style="fill:#7a747b;fill-opacity:1;fill-rule:nonzero;stroke:none"
         id="path296" />
      <path
         d="m 2457.89,190.172 c -0.15,0.277 -0.27,0.558 -0.41,0.848 0.14,-0.309 0.26,-0.571 0.41,-0.848"
         style="fill:#7a747b;fill-opacity:1;fill-rule:nonzero;stroke:none"
         id="path298" />
      <path
         d="m 2454.51,198.512 c 0.8,-2.532 1.77,-4.981 2.89,-7.332 -1.15,2.39 -2.09,4.859 -2.86,7.332 h -0.03"
         style="fill:#7a747b;fill-opacity:1;fill-rule:nonzero;stroke:none"
         id="path300" />
      <path
         d="m 2515.63,272.449 c 3.18,0 5.5,-0.25 8.19,-0.699 l 0.76,4.809 c 0,0 -7.4,2.293 -17.14,1.5 l -0.77,2.621 c 3.03,0.64 5.3,3.32 5.3,6.55 0,3.668 -3,6.661 -6.68,6.661 -3.68,0 -6.68,-2.993 -6.68,-6.661 0,-3.23 2.27,-5.91 5.29,-6.55 l 0.85,-2.93 c -10.34,-1.41 -18.56,-5.449 -18.56,-5.449 l 1.45,-4.461 c 6.25,2.07 11.68,3.34 16.6,3.879 4.81,0.511 8.45,0.73 11.39,0.73"
         style="fill:#7a747b;fill-opacity:1;fill-rule:nonzero;stroke:none"
         id="path302" />
      <path
         d="m 2458.3,248.051 0.03,0.051 c 0.23,0.32 0.48,0.609 0.71,0.898 l -1.98,1.43 -3.09,2.25 c -0.16,-0.239 -5.02,-4.7 -8.85,-12.938 -0.16,0.246 -0.36,0.488 -0.57,0.738 -1.15,1.262 -2.76,1.899 -4.79,1.86 -0.02,0 -0.06,0 -0.1,0 -1.26,0 -2.12,0.422 -2.7,0.941 0.57,0.707 0.91,1.617 0.91,2.61 0,2.32 -1.9,4.23 -4.24,4.23 -2.33,0 -4.23,-1.91 -4.23,-4.23 0,-2.34 1.9,-4.243 4.23,-4.243 0.37,0 0.72,0.071 1.07,0.141 1.03,-1.16 2.68,-2.16 5.09,-2.109 1.25,0.011 2.17,-0.309 2.77,-0.989 0.7,-0.761 0.94,-1.871 1.01,-2.699 0,-0.012 0,-0.031 -0.02,-0.031 -2.75,-7.52 -1.97,-16.891 -1.97,-16.891 l 6.7,-0.261 c 0.13,3.41 0.62,9.363 2.35,14.101 3.32,9.172 7.49,14.891 7.67,15.141"
         style="fill:#7a747b;fill-opacity:1;fill-rule:nonzero;stroke:none"
         id="path304" />
      <path
         d="m 2573.81,266.871 c -2.33,0 -4.23,-1.902 -4.23,-4.23 0,-0.36 0.05,-0.731 0.15,-1.051 -1.17,-1.051 -2.17,-2.699 -2.13,-5.121 0.02,-1.25 -0.31,-2.149 -0.98,-2.77 -0.54,-0.48 -1.2,-0.73 -1.86,-0.89 -4.98,6.98 -11.11,11.23 -11.11,11.23 l -4.8,-5.137 c 3.62,-3.293 7.33,-7.433 10.93,-12.593 2.49,-3.571 5.05,-8.161 7.18,-12.75 l 6.49,3.082 c 0,0 -2.97,7.308 -7.13,13.871 0.71,0.238 1.44,0.636 2.1,1.199 1.27,1.148 1.88,2.769 1.85,4.801 -0.02,1.32 0.41,2.207 0.93,2.797 0.72,-0.559 1.62,-0.911 2.61,-0.911 2.34,0 4.24,1.891 4.24,4.243 0,2.328 -1.9,4.23 -4.24,4.23"
         style="fill:#7a747b;fill-opacity:1;fill-rule:nonzero;stroke:none"
         id="path306" />
      <path
         d="m 2557.01,208.672 c -8.92,-4.34 -23.58,-10.09 -42.88,-12.774 -7.59,-1.046 -14.93,-1.449 -21.68,-1.449 -8.8,0 -16.58,0.66 -22.53,1.422 -6.81,0.859 -12.13,1.899 -15.38,2.641 0.77,-2.473 1.71,-4.942 2.86,-7.332 0.02,-0.059 0.05,-0.129 0.08,-0.16 0.14,-0.29 0.26,-0.571 0.41,-0.848 0.14,-0.293 0.27,-0.551 0.42,-0.801 0.03,-0.07 0.06,-0.16 0.09,-0.223 1.92,-3.597 4.23,-6.918 6.85,-9.777 9.1,-9.98 18.37,-11.551 18.46,-11.562 l 0.16,-0.02 0.13,-0.051 c 0.09,-0.019 8.31,-2.679 20.81,-2.679 12.3,0 24.38,2.472 35.88,7.371 8.53,4.371 16.59,10.992 20.59,16.89 3.08,4.582 5.31,9.442 6.64,14.512 0.7,2.688 1.26,7 0.92,11.527 -2.5,-1.679 -6.46,-4.078 -11.83,-6.687"
         style="fill:#7a747b;fill-opacity:1;fill-rule:nonzero;stroke:none"
         id="path308" />
      <path
         d="m 2486.62,250.602 c 9.85,0 17.82,-7.981 17.82,-17.821 0,-9.84 -7.97,-17.801 -17.82,-17.801 -9.83,0 -17.8,7.961 -17.8,17.801 0,9.84 7.97,17.821 17.8,17.821 z m 52.12,-0.442 c 6.07,0 11.03,-4.941 11.03,-11.031 0,-6.078 -4.96,-11.02 -11.03,-11.02 -6.07,0 -11.02,4.942 -11.02,11.02 0,6.09 4.95,11.031 11.02,11.031 z m -77.59,-4.219 c -0.26,-0.382 -4.12,-5.851 -7.18,-14.25 -2.28,-6.3 -2.18,-15.453 -2.18,-15.562 v -0.02 c 0,-2.14 0.12,-4.269 0.35,-6.379 0,-0.058 0,-0.089 0.01,-0.109 0.03,-0.269 0.09,-0.539 0.11,-0.812 0.18,-1.469 0.43,-2.95 0.74,-4.438 4.43,-1.121 30.86,-7.281 60.39,-3.18 18.5,2.579 32.56,8.059 41.09,12.188 7.1,3.441 11.65,6.562 13.42,7.832 -1.76,6.508 -6.59,16.699 -11.03,23.059 -12.68,18.121 -26.35,22.769 -33.37,23.921 -2.68,0.438 -4.83,0.7 -7.87,0.7 -2.83,0 -6.34,-0.243 -11.02,-0.731 -4.7,-0.48 -9.94,-1.711 -16.02,-3.769 -8.52,-2.852 -16.23,-7.321 -22.3,-12.93 l -0.2,-0.199 c -0.9,-0.832 -2.78,-2.582 -4.94,-5.321"
         style="fill:#7a747b;fill-opacity:1;fill-rule:nonzero;stroke:none"
         id="path310" />
    </g>
  </g>
</svg>
